<?xml version="1.0" standalone="no"?>
<!DOCTYPE svg PUBLIC "-//W3C//DTD SVG 20010904//EN"
 "http://www.w3.org/TR/2001/REC-SVG-20010904/DTD/svg10.dtd">
<svg version="1.0" xmlns="http://www.w3.org/2000/svg"
 width="960.000000pt" height="446.000000pt" viewBox="0 0 960.000000 446.000000"
 preserveAspectRatio="xMidYMid meet">

<g transform="translate(0.000000,446.000000) scale(0.100000,-0.100000)"
fill="#000000" stroke="none">
<path d="M1373 2683 c9 -2 25 -2 35 0 9 3 1 5 -18 5 -19 0 -27 -2 -17 -5z"/>
<path d="M1463 2683 c15 -2 37 -2 50 0 12 2 0 4 -28 4 -27 0 -38 -2 -22 -4z"/>
<path d="M1540 2686 c0 -2 9 -6 20 -9 11 -3 20 -1 20 4 0 5 -9 9 -20 9 -11 0
-20 -2 -20 -4z"/>
<path d="M1255 2655 c-27 -13 -65 -29 -83 -36 -36 -13 -52 -50 -32 -74 19 -23
30 -18 20 10 -8 20 -6 29 10 45 11 11 26 20 33 20 18 1 134 59 117 59 -8 0
-37 -11 -65 -24z"/>
<path d="M1690 2668 c0 -4 11 -8 25 -8 25 0 197 -41 270 -65 171 -55 242 -69
346 -70 100 0 109 2 145 27 21 15 39 26 41 24 2 -2 -3 -31 -11 -65 -14 -62
-14 -62 7 -59 16 2 21 9 19 27 -1 13 5 46 13 74 8 28 15 57 15 64 0 22 -25 14
-56 -18 -44 -47 -76 -59 -153 -59 -80 0 -176 18 -311 60 -176 54 -350 88 -350
68z"/>
<path d="M1286 2633 c-11 -11 -6 -23 9 -23 8 0 15 4 15 9 0 13 -16 22 -24 14z"/>
<path d="M680 2616 c-6 -6 -10 -29 -10 -52 0 -24 -3 -45 -7 -47 -5 -2 -26 -2
-49 0 -37 4 -40 7 -36 29 3 17 0 24 -12 24 -10 0 -16 -9 -16 -25 0 -16 -6 -25
-15 -25 -10 0 -15 10 -15 30 0 20 -5 30 -15 30 -8 0 -15 -4 -15 -10 0 -5 5
-10 11 -10 6 0 4 -7 -4 -15 -13 -12 -28 -13 -89 -6 -125 16 -191 16 -196 1 -3
-7 3 -19 14 -27 17 -12 17 -13 -3 -13 -24 0 -40 -17 -27 -30 20 -18 491 -35
554 -20 24 6 25 11 28 87 l3 81 -46 4 c-25 2 -50 -1 -55 -6z m31 -53 c-8 -15
-10 -15 -11 -2 0 17 10 32 18 25 2 -3 -1 -13 -7 -23z m-421 -69 c0 -2 -7 -4
-15 -4 -8 0 -15 4 -15 10 0 5 7 7 15 4 8 -4 15 -8 15 -10z"/>
<path d="M1830 2579 c-21 -26 -34 -32 -88 -38 -37 -4 -70 -14 -79 -24 -11 -11
-13 -17 -5 -17 7 0 16 -10 21 -23 6 -15 18 -23 37 -25 34 -3 40 -8 26 -25 -15
-18 -6 -26 19 -20 14 4 19 12 16 24 -5 17 2 19 61 20 37 0 76 4 87 9 11 5 16
9 12 9 -5 1 -1 8 7 17 15 14 14 18 -3 40 -10 13 -17 33 -14 43 5 21 0 26 -42
35 -25 5 -34 1 -55 -25z m75 -27 c0 -18 6 -36 13 -41 10 -6 10 -10 -2 -20 -11
-10 -38 -11 -102 -6 -91 8 -149 27 -119 39 9 3 34 6 56 6 45 0 94 21 103 45 3
10 15 15 28 13 19 -2 23 -9 23 -36z"/>
<path d="M1365 2581 c3 -6 19 -11 36 -11 16 0 29 -4 29 -10 0 -5 -16 -10 -36
-10 -34 0 -35 -1 -32 -32 3 -31 6 -33 46 -36 l43 -3 -3 53 -3 53 -43 3 c-29 2
-42 0 -37 -7z"/>
<path d="M0 2560 c0 -5 9 -10 20 -10 11 0 20 5 20 10 0 6 -9 10 -20 10 -11 0
-20 -4 -20 -10z"/>
<path d="M58 2563 c6 -2 18 -2 25 0 6 3 1 5 -13 5 -14 0 -19 -2 -12 -5z"/>
<path d="M620 2559 c0 -5 5 -7 10 -4 6 3 10 8 10 11 0 2 -4 4 -10 4 -5 0 -10
-5 -10 -11z"/>
<path d="M5635 2560 c-3 -5 -15 -10 -26 -10 -16 0 -20 -6 -17 -27 2 -20 9 -28
23 -28 16 0 20 -7 20 -30 0 -23 -5 -31 -22 -33 -20 -3 -23 1 -23 27 0 21 -5
31 -16 31 -29 0 -54 -21 -54 -44 0 -23 -17 -36 -46 -36 -11 0 -13 11 -8 55 4
30 5 55 2 55 -3 0 -20 -5 -38 -11 -31 -11 -32 -14 -27 -54 5 -49 0 -61 -28
-66 -22 -4 -32 -44 -17 -67 7 -10 15 -10 38 -1 42 18 398 14 604 -6 92 -9 182
-15 201 -13 l34 3 -47 22 c-43 20 -64 43 -39 43 15 0 9 39 -7 45 -7 2 -10 0
-7 -5 3 -6 2 -10 -3 -10 -5 0 -14 11 -22 24 -8 16 -27 28 -53 35 -23 5 -42 9
-44 8 -1 -2 -3 -19 -4 -38 l-3 -35 -54 4 c-30 3 -77 10 -106 16 -42 9 -52 16
-54 35 -4 22 -1 23 32 18 33 -5 36 -4 36 18 0 19 -8 26 -37 34 -32 9 -40 8
-55 -9 -11 -11 -14 -20 -8 -20 5 0 10 -14 10 -31 l0 -30 -52 3 -53 3 2 35 c2
19 3 43 4 52 0 15 4 15 41 2 23 -8 43 -12 46 -10 2 3 -15 10 -37 17 -23 7 -46
18 -52 26 -14 16 -26 17 -34 3z m436 -160 c10 -6 19 -19 19 -30 0 -17 -3 -18
-30 -8 -33 11 -44 23 -35 38 8 13 21 13 46 0z"/>
<path d="M118 2553 c7 -3 16 -2 19 1 4 3 -2 6 -13 5 -11 0 -14 -3 -6 -6z"/>
<path d="M170 2549 c0 -4 -10 -10 -22 -12 -21 -4 -21 -4 -2 -6 11 0 28 5 38
12 16 12 16 14 2 14 -9 0 -16 -4 -16 -8z"/>
<path d="M5548 2523 c6 -2 10 -9 7 -14 -4 -5 1 -6 10 -2 13 5 14 7 3 14 -7 5
-17 8 -23 8 -5 0 -4 -3 3 -6z"/>
<path d="M1310 2460 c0 -33 19 -40 40 -15 16 20 5 45 -20 45 -16 0 -20 -7 -20
-30z"/>
<path d="M7980 2412 c0 -15 84 -50 132 -55 39 -4 47 -1 51 14 9 34 -24 49
-106 49 -42 0 -77 -4 -77 -8z"/>
<path d="M8260 2399 c7 -12 18 -18 26 -15 8 3 12 2 9 -3 -14 -24 98 -47 116
-24 16 19 -5 41 -45 47 -118 18 -118 18 -106 -5z"/>
<path d="M770 2370 c0 -34 8 -49 60 -109 33 -38 64 -73 70 -76 5 -3 10 -25 10
-48 0 -33 7 -50 29 -75 l30 -32 113 1 c63 0 118 5 125 11 15 12 17 98 3 98 -6
0 -13 -7 -16 -15 -4 -8 -17 -15 -30 -15 -29 0 -48 31 -31 50 10 12 9 12 -4 2
-12 -9 -20 -8 -35 4 -10 8 -13 12 -5 8 9 -5 12 -3 7 5 -4 6 -11 9 -15 7 -10
-7 -72 50 -63 59 4 5 2 5 -4 2 -7 -4 -23 2 -36 12 -34 27 -54 13 -40 -27 6
-17 7 -33 4 -37 -4 -3 0 -4 8 -1 9 3 23 -5 33 -19 17 -24 17 -25 -1 -25 -24 0
-83 84 -76 107 4 13 3 14 -3 5 -8 -10 -12 -10 -23 3 -11 13 -9 15 11 16 13 1
30 1 37 0 25 -4 10 22 -44 75 -45 44 -59 53 -70 43 -10 -8 -14 -8 -14 0 0 6
-7 11 -15 11 -11 0 -15 -11 -15 -40z m110 -40 c0 -5 -2 -10 -4 -10 -3 0 -8 5
-11 10 -3 6 -1 10 4 10 6 0 11 -4 11 -10z"/>
<path d="M8510 2388 c0 -7 16 -23 36 -36 33 -22 42 -51 13 -43 -69 17 -1899
-7 -2104 -29 -38 -4 -55 -8 -37 -9 17 0 32 -5 32 -10 0 -4 206 -9 458 -9 251
0 541 -1 644 -2 116 -2 193 1 200 8 7 5 32 12 56 15 l42 4 0 -33 c0 -31 3 -34
29 -34 21 0 32 6 36 20 6 18 14 19 173 14 92 -3 174 -7 183 -8 12 -2 14 4 11
27 l-5 30 160 -6 c186 -8 294 -20 417 -48 57 -13 92 -17 98 -11 6 6 -19 16
-71 27 -45 10 -81 21 -81 25 0 4 -39 11 -87 15 -49 4 -97 11 -108 16 -13 6 -2
7 32 3 29 -3 57 -2 63 1 19 12 -29 64 -68 75 -52 14 -122 13 -122 -2z"/>
<path d="M695 2253 c1 -16 -3 -33 -8 -40 -5 -7 10 -37 45 -85 53 -72 53 -72
59 -43 13 58 8 74 -37 134 -25 34 -49 61 -53 61 -4 0 -6 -12 -6 -27z"/>
<path d="M6295 2270 l-30 -8 30 -1 c17 0 37 4 45 9 13 9 13 10 0 9 -8 -1 -28
-5 -45 -9z"/>
<path d="M6076 2258 c3 -4 29 -7 59 -5 29 1 48 5 42 10 -15 9 -107 5 -101 -5z"/>
<path d="M6208 2263 c6 -2 18 -2 25 0 6 3 1 5 -13 5 -14 0 -19 -2 -12 -5z"/>
<path d="M5848 2253 c12 -2 32 -2 45 0 12 2 2 4 -23 4 -25 0 -35 -2 -22 -4z"/>
<path d="M5933 2253 c9 -2 23 -2 30 0 6 3 -1 5 -18 5 -16 0 -22 -2 -12 -5z"/>
<path d="M5708 2243 c7 -3 16 -2 19 1 4 3 -2 6 -13 5 -11 0 -14 -3 -6 -6z"/>
<path d="M5758 2243 c7 -3 16 -2 19 1 4 3 -2 6 -13 5 -11 0 -14 -3 -6 -6z"/>
<path d="M1070 2230 c0 -6 7 -10 15 -10 8 0 15 2 15 4 0 2 -7 6 -15 10 -8 3
-15 1 -15 -4z"/>
<path d="M5493 2233 c15 -2 37 -2 50 0 12 2 0 4 -28 4 -27 0 -38 -2 -22 -4z"/>
<path d="M6459 2223 c-13 -16 -12 -17 4 -4 16 13 21 21 13 21 -2 0 -10 -8 -17
-17z"/>
<path d="M6503 2233 c9 -2 25 -2 35 0 9 3 1 5 -18 5 -19 0 -27 -2 -17 -5z"/>
<path d="M6660 2231 c0 -10 19 -25 25 -20 1 2 -3 10 -11 17 -8 7 -14 8 -14 3z"/>
<path d="M6836 2231 c-3 -4 4 -7 14 -6 27 2 33 10 10 12 -11 1 -22 -2 -24 -6z"/>
<path d="M6968 2233 c7 -3 16 -2 19 1 4 3 -2 6 -13 5 -11 0 -14 -3 -6 -6z"/>
<path d="M7198 2233 c7 -3 16 -2 19 1 4 3 -2 6 -13 5 -11 0 -14 -3 -6 -6z"/>
<path d="M7238 2233 c7 -3 16 -2 19 1 4 3 -2 6 -13 5 -11 0 -14 -3 -6 -6z"/>
<path d="M7298 2233 c17 -2 47 -2 65 0 17 2 3 4 -33 4 -36 0 -50 -2 -32 -4z"/>
<path d="M9090 2230 c-8 -5 -11 -12 -8 -16 4 -3 14 1 23 10 18 17 9 21 -15 6z"/>
<path d="M5315 2220 c-3 -5 1 -10 9 -10 9 0 16 5 16 10 0 6 -4 10 -9 10 -6 0
-13 -4 -16 -10z"/>
<path d="M5378 2223 c18 -2 45 -2 60 0 15 2 0 4 -33 4 -33 0 -45 -2 -27 -4z"/>
<path d="M5780 2216 c7 -7 13 -7 20 0 6 6 3 10 -10 10 -13 0 -16 -4 -10 -10z"/>
<path d="M5220 2216 c0 -2 7 -6 15 -10 8 -3 15 -1 15 4 0 6 -7 10 -15 10 -8 0
-15 -2 -15 -4z"/>
<path d="M7148 2213 c7 -3 16 -2 19 1 4 3 -2 6 -13 5 -11 0 -14 -3 -6 -6z"/>
<path d="M8246 2212 c-4 -7 -36 -225 -36 -248 0 -3 -8 -3 -17 0 -10 3 -103 10
-208 16 -104 6 -215 12 -245 15 -30 2 -69 4 -86 5 l-31 0 5 55 c4 49 2 55 -14
54 -11 0 -14 -3 -6 -6 6 -2 12 -16 12 -29 0 -37 -40 -34 -41 4 -1 21 -3 18 -9
-13 -4 -22 -6 -43 -3 -48 2 -4 -3 -10 -11 -13 -27 -10 -18 -27 11 -21 15 3 70
1 123 -3 52 -5 157 -11 233 -15 76 -3 175 -10 219 -16 44 -5 81 -9 83 -7 4 6
34 273 30 276 -1 2 -6 -1 -9 -6z"/>
<path d="M5110 2205 c0 -10 29 -24 34 -17 3 6 -3 12 -14 15 -11 3 -20 4 -20 2z"/>
<path d="M1140 2184 c8 -8 23 -20 34 -26 14 -6 11 -1 -8 16 -32 29 -45 34 -26
10z"/>
<path d="M4994 2193 c4 -4 21 -8 38 -9 21 -1 26 1 17 7 -17 11 -65 12 -55 2z"/>
<path d="M5713 2193 c9 -2 25 -2 35 0 9 3 1 5 -18 5 -19 0 -27 -2 -17 -5z"/>
<path d="M6105 2190 c-3 -5 -1 -10 4 -10 6 0 11 5 11 10 0 6 -2 10 -4 10 -3 0
-8 -4 -11 -10z"/>
<path d="M6368 2193 c7 -3 16 -2 19 1 4 3 -2 6 -13 5 -11 0 -14 -3 -6 -6z"/>
<path d="M4855 2180 l-50 -7 45 -1 c25 0 65 3 90 7 l45 8 -40 0 c-22 0 -62 -3
-90 -7z"/>
<path d="M5491 2186 c2 -2 15 -9 29 -15 24 -11 24 -11 6 3 -16 13 -49 24 -35
12z"/>
<path d="M6143 2183 c9 -2 25 -2 35 0 9 3 1 5 -18 5 -19 0 -27 -2 -17 -5z"/>
<path d="M7978 2183 c-18 -4 -25 -22 -10 -24 31 -6 62 -3 62 4 0 5 6 5 13 -1
16 -14 67 -10 67 5 0 8 -18 12 -49 11 -28 0 -53 2 -58 4 -4 3 -16 3 -25 1z"/>
<path d="M5990 2172 c0 -5 14 -7 30 -4 17 2 30 6 30 8 0 2 -13 4 -30 4 -16 0
-30 -4 -30 -8z"/>
<path d="M6065 2170 c3 -5 8 -10 11 -10 2 0 4 5 4 10 0 6 -5 10 -11 10 -5 0
-7 -4 -4 -10z"/>
<path d="M8130 2164 c0 -7 17 -12 40 -12 25 -1 40 4 40 11 0 8 -15 12 -40 12
-24 0 -40 -4 -40 -11z"/>
<path d="M4570 2150 c-69 -10 -111 -18 -95 -18 17 -1 93 7 170 17 77 11 120
19 95 19 -25 0 -101 -8 -170 -18z"/>
<path d="M5825 2160 c-13 -6 -15 -9 -5 -9 8 0 22 4 30 9 18 12 2 12 -25 0z"/>
<path d="M5918 2163 c7 -3 16 -2 19 1 4 3 -2 6 -13 5 -11 0 -14 -3 -6 -6z"/>
<path d="M7880 2150 c-24 -8 -23 -8 8 -9 20 -1 31 3 27 9 -3 6 -7 10 -8 9 -1
-1 -13 -5 -27 -9z"/>
<path d="M8810 2135 c7 -8 17 -15 22 -15 6 0 5 7 -2 15 -7 8 -17 15 -22 15 -6
0 -5 -7 2 -15z"/>
<path d="M5516 2132 c-3 -4 4 -9 15 -9 23 -2 25 3 4 10 -8 4 -16 3 -19 -1z"/>
<path d="M4388 2123 c12 -2 30 -2 40 0 9 3 -1 5 -23 4 -22 0 -30 -2 -17 -4z"/>
<path d="M5315 2120 c-28 -7 -28 -8 -5 -9 14 0 32 4 40 9 17 11 8 11 -35 0z"/>
<path d="M5371 2126 c2 -2 20 -6 39 -10 25 -4 31 -3 20 4 -14 9 -69 15 -59 6z"/>
<path d="M4226 2111 c-19 -7 -19 -8 2 -13 12 -4 20 -2 17 2 -3 5 23 11 57 13
l63 3 -60 1 c-33 1 -69 -2 -79 -6z"/>
<path d="M5258 2113 c7 -3 16 -2 19 1 4 3 -2 6 -13 5 -11 0 -14 -3 -6 -6z"/>
<path d="M5163 2103 c15 -2 37 -2 50 0 12 2 0 4 -28 4 -27 0 -38 -2 -22 -4z"/>
<path d="M5078 2093 c12 -2 30 -2 40 0 9 3 -1 5 -23 4 -22 0 -30 -2 -17 -4z"/>
<path d="M7685 2090 c3 -5 17 -10 31 -10 13 0 24 5 24 10 0 6 -14 10 -31 10
-17 0 -28 -4 -24 -10z"/>
<path d="M8805 2090 c3 -5 8 -10 11 -10 2 0 4 5 4 10 0 6 -5 10 -11 10 -5 0
-7 -4 -4 -10z"/>
<path d="M4968 2083 c6 -2 18 -2 25 0 6 3 1 5 -13 5 -14 0 -19 -2 -12 -5z"/>
<path d="M8365 2080 c3 -5 11 -10 16 -10 6 0 7 5 4 10 -3 6 -11 10 -16 10 -6
0 -7 -4 -4 -10z"/>
<path d="M4848 2073 c7 -3 16 -2 19 1 4 3 -2 6 -13 5 -11 0 -14 -3 -6 -6z"/>
<path d="M7455 2067 c-4 -10 -5 -21 -1 -24 10 -10 18 4 13 24 -4 17 -4 17 -12
0z"/>
<path d="M4690 2059 c-23 -5 -10 -5 35 -2 39 3 72 7 74 9 7 7 -72 2 -109 -7z"/>
<path d="M7505 2060 c-3 -5 -1 -10 4 -10 6 0 11 5 11 10 0 6 -2 10 -4 10 -3 0
-8 -4 -11 -10z"/>
<path d="M8895 2060 c-4 -6 -1 -9 7 -8 7 2 12 -3 10 -10 -1 -8 2 -11 8 -7 8 5
7 11 -1 21 -14 17 -16 17 -24 4z"/>
<path d="M8040 2050 c0 -5 5 -10 10 -10 6 0 10 5 10 10 0 6 -4 10 -10 10 -5 0
-10 -4 -10 -10z"/>
<path d="M8290 2050 c0 -5 5 -10 10 -10 6 0 10 5 10 10 0 6 -4 10 -10 10 -5 0
-10 -4 -10 -10z"/>
<path d="M4593 2043 c9 -2 25 -2 35 0 9 3 1 5 -18 5 -19 0 -27 -2 -17 -5z"/>
<path d="M4548 2033 c7 -3 16 -2 19 1 4 3 -2 6 -13 5 -11 0 -14 -3 -6 -6z"/>
<path d="M4155 2000 c-16 -16 -25 -30 -21 -30 8 0 22 13 45 43 22 27 7 20 -24
-13z"/>
<path d="M4340 2019 c0 -5 11 -9 25 -9 14 0 25 2 25 4 0 2 -11 6 -25 8 -14 3
-25 1 -25 -3z"/>
<path d="M4428 2023 c7 -3 16 -2 19 1 4 3 -2 6 -13 5 -11 0 -14 -3 -6 -6z"/>
<path d="M7170 2010 c-12 -8 -9 -10 13 -10 16 0 26 4 22 10 -8 12 -16 12 -35
0z"/>
<path d="M7245 2010 c-4 -6 7 -10 24 -10 17 0 31 5 31 10 0 6 -11 10 -24 10
-14 0 -28 -4 -31 -10z"/>
<path d="M7487 2009 c7 -7 15 -10 18 -7 3 3 -2 9 -12 12 -14 6 -15 5 -6 -5z"/>
<path d="M4298 2003 c6 -2 18 -2 25 0 6 3 1 5 -13 5 -14 0 -19 -2 -12 -5z"/>
<path d="M8609 1986 c-9 -19 -15 -23 -25 -15 -14 11 -18 6 -28 -34 -6 -24 -3
-30 14 -34 11 -3 20 -9 20 -14 0 -11 -3 -11 -75 6 -60 15 -103 19 -93 10 2 -3
39 -13 81 -24 58 -14 86 -17 117 -10 46 11 60 6 60 -20 0 -15 10 -17 78 -17
56 1 76 -2 75 -11 -2 -9 14 -14 50 -15 85 -3 110 2 134 24 25 23 22 39 -6 31
-10 -2 -26 3 -35 13 -13 12 -20 14 -29 5 -16 -16 -25 -14 -23 6 0 10 -5 18
-11 19 -7 1 -16 3 -20 4 -5 1 -12 2 -17 1 -18 -4 -46 11 -46 25 0 8 -4 14 -10
14 -5 0 -10 -5 -10 -11 0 -8 -5 -8 -15 1 -8 7 -15 9 -16 4 -1 -5 -4 2 -8 16
l-7 25 -17 -30 -16 -30 -1 36 c0 21 -5 36 -12 37 -7 0 -32 4 -55 8 -39 6 -43
4 -54 -20z m12 -47 l-9 -34 -1 31 c-1 17 2 34 6 37 12 13 14 -1 4 -34z"/>
<path d="M8955 2000 c3 -5 8 -10 11 -10 2 0 4 5 4 10 0 6 -5 10 -11 10 -5 0
-7 -4 -4 -10z"/>
<path d="M4238 1993 c6 -2 18 -2 25 0 6 3 1 5 -13 5 -14 0 -19 -2 -12 -5z"/>
<path d="M8270 1970 c0 -5 9 -10 21 -10 11 0 17 5 14 10 -3 6 -13 10 -21 10
-8 0 -14 -4 -14 -10z"/>
<path d="M9010 1920 c0 -5 7 -7 15 -4 8 4 15 8 15 10 0 2 -7 4 -15 4 -8 0 -15
-4 -15 -10z"/>
<path d="M9101 1857 c2 -1 13 -9 24 -17 19 -14 19 -14 6 3 -7 9 -18 17 -24 17
-6 0 -8 -1 -6 -3z"/>
<path d="M3659 1763 c-13 -16 -12 -17 4 -4 9 7 17 15 17 17 0 8 -8 3 -21 -13z"/>
<path d="M3618 1731 c10 -6 10 -14 2 -35 -5 -15 -6 -25 -1 -22 5 3 13 19 19
34 8 25 7 28 -12 30 -14 1 -16 -2 -8 -7z"/>
<path d="M3620 1629 c0 -5 5 -7 10 -4 6 3 10 8 10 11 0 2 -4 4 -10 4 -5 0 -10
-5 -10 -11z"/>
<path d="M3656 1597 c3 -10 9 -15 12 -12 3 3 0 11 -7 18 -10 9 -11 8 -5 -6z"/>
<path d="M9043 1553 c9 -2 25 -2 35 0 9 3 1 5 -18 5 -19 0 -27 -2 -17 -5z"/>
<path d="M1470 1495 c7 -8 8 -15 3 -15 -18 0 -63 -41 -57 -51 4 -6 13 -4 24 6
17 15 20 14 43 -17 13 -18 32 -48 41 -65 9 -18 21 -33 26 -33 14 0 12 17 -2
24 -9 4 -8 5 2 4 8 -1 28 4 44 11 28 11 28 12 11 31 -26 29 -15 32 40 14 l48
-17 -208 -202 c-135 -130 -204 -204 -197 -209 8 -5 63 44 150 130 142 143 287
274 300 274 19 -1 64 -51 101 -113 23 -37 41 -70 41 -73 0 -5 82 -134 139
-219 56 -82 122 -205 117 -214 -4 -5 -23 -9 -44 -9 -20 1 -213 -5 -429 -11
-216 -7 -397 -9 -404 -5 -8 5 -7 10 5 16 13 7 16 17 11 39 -6 26 -4 29 17 28
79 -2 440 16 444 22 3 5 -8 12 -23 16 -30 8 -20 10 165 28 45 4 82 12 82 17 0
19 -662 -13 -668 -32 -2 -6 -8 -10 -14 -10 -7 0 -8 14 -4 38 6 42 0 57 -18 43
-6 -5 -58 -14 -116 -20 -145 -16 -136 -12 -144 -84 -4 -34 -10 -79 -13 -99
l-6 -38 -126 0 -126 1 -90 100 c-49 55 -96 106 -103 114 -7 8 -18 15 -23 15
-17 0 -9 -27 16 -50 15 -14 24 -33 23 -49 -4 -60 2 -90 16 -85 9 3 17 -3 21
-17 4 -13 14 -29 21 -37 8 -7 14 -24 14 -38 0 -21 6 -26 35 -24 14 1 35 -31
35 -54 0 -28 6 -31 30 -16 9 5 19 5 27 -2 9 -7 13 -7 13 1 0 8 8 10 23 5 24
-8 36 -8 175 -3 66 2 91 6 88 15 -3 9 4 9 32 1 27 -9 36 -9 40 1 2 7 8 12 13
12 6 0 7 -5 4 -10 -4 -6 7 -10 24 -10 18 0 31 5 31 13 0 7 5 4 11 -5 9 -16 23
-17 137 -12 69 3 134 10 143 14 8 5 26 6 38 3 14 -4 26 -1 32 8 7 11 11 11 17
1 6 -9 37 -11 118 -8 l109 5 2 -26 c1 -18 -2 -22 -7 -13 -7 11 -19 5 -52 -26
-24 -22 -69 -59 -100 -84 -32 -25 -58 -48 -58 -52 0 -5 -5 -8 -11 -8 -11 0
-65 -41 -129 -97 -14 -12 -41 -34 -62 -50 -107 -83 -168 -136 -168 -149 0 -8
3 -14 6 -14 3 0 45 33 92 73 48 40 143 117 212 172 69 54 150 121 179 147 30
26 59 48 63 48 4 0 8 -13 8 -30 0 -32 16 -39 39 -18 9 9 12 9 10 2 -7 -21
-192 -178 -369 -314 -96 -73 -179 -137 -184 -142 -6 -4 33 -8 86 -8 95 0 96 0
133 35 21 19 43 31 48 28 6 -3 7 -1 3 5 -9 15 40 66 55 56 8 -4 9 -3 5 5 -10
15 70 91 95 91 11 0 17 5 14 10 -5 9 43 35 51 28 1 -2 3 -39 4 -83 2 -105 10
-175 21 -175 5 0 9 11 9 24 0 16 7 26 21 29 19 5 21 2 17 -24 l-5 -29 70 0 69
0 -7 88 c-9 134 -27 306 -31 314 -2 4 0 9 5 13 6 3 8 12 5 19 -3 8 8 19 28 29
18 9 33 20 33 24 0 4 4 7 8 5 5 -1 6 2 2 8 -4 6 8 24 25 40 18 17 30 23 26 15
-3 -8 -1 -15 4 -15 6 0 10 9 10 19 0 20 18 31 50 31 13 0 20 -10 25 -40 4 -22
11 -40 16 -40 5 0 9 -5 9 -11 0 -5 -4 -7 -10 -4 -6 4 -6 -4 1 -22 6 -15 12
-49 14 -75 1 -26 16 -126 31 -223 l29 -175 99 0 99 0 -7 33 c-4 17 -11 33 -16
35 -6 2 -10 8 -10 13 0 6 5 7 12 3 7 -5 9 -2 6 8 -4 9 -9 37 -13 64 -10 78
-15 94 -27 91 -7 -1 -14 7 -16 18 -4 17 -2 18 12 6 14 -11 16 -11 16 3 0 9 -8
16 -17 16 -14 0 -15 2 -4 9 19 12 -5 151 -27 151 -12 0 -12 3 -2 15 6 8 10 20
7 27 -3 8 -6 5 -7 -7 -1 -11 -8 4 -16 34 -8 32 -11 58 -6 63 6 6 12 -4 16 -23
3 -18 8 -30 11 -28 2 3 -1 24 -7 47 -6 24 -8 45 -5 48 5 5 88 13 372 34 72 5
183 9 247 10 64 0 119 4 122 9 3 5 26 6 50 4 l45 -5 -5 63 c-3 35 -8 66 -12
69 -4 4 -48 4 -99 1 -72 -5 -89 -3 -81 7 13 15 -4 16 -83 3 -31 -5 -91 -11
-132 -12 -61 -3 -74 -6 -65 -16 8 -10 6 -13 -6 -13 -9 0 -16 6 -16 13 0 8 -4
7 -11 -3 -8 -11 -12 -12 -16 -2 -6 15 -39 16 -49 1 -3 -6 -19 -9 -35 -7 -16 3
-29 1 -29 -4 0 -13 -28 -9 -33 5 -4 8 -8 9 -14 1 -11 -15 -48 -23 -64 -13 -7
4 -18 5 -24 1 -5 -4 -19 -8 -30 -9 -11 -2 -34 -5 -52 -7 -40 -5 -52 5 -96 74
l-34 55 51 1 c66 1 408 24 464 30 23 3 42 9 42 15 0 5 -4 9 -10 9 -17 0 -25 3
-36 15 -8 7 -47 8 -130 3 -346 -23 -377 -26 -385 -39 -8 -12 -11 -11 -19 1 -5
8 -67 105 -139 215 -71 110 -128 201 -127 203 2 1 45 -19 97 -44 191 -94 444
-204 559 -244 103 -35 280 -106 340 -136 69 -34 152 -64 162 -58 17 11 6 25
-29 40 -21 9 -74 33 -118 54 -44 21 -114 50 -155 64 -41 15 -84 30 -95 35 -11
5 -56 21 -100 36 -95 33 -177 66 -263 106 -34 16 -65 29 -68 29 -3 0 -76 36
-163 79 -120 60 -161 77 -174 69 -13 -7 -19 -5 -23 6 -4 12 -20 16 -55 16 -27
0 -57 4 -67 9 -20 11 -108 42 -119 43 -5 0 -28 7 -53 14 -25 8 -56 14 -69 14
-21 0 -22 2 -10 17 10 11 10 14 2 9 -7 -4 -13 -2 -13 3 0 6 -5 11 -11 11 -8 0
-8 -5 1 -15z m10 -35 c0 -5 -4 -10 -10 -10 -5 0 -10 5 -10 10 0 6 5 10 10 10
6 0 10 -4 10 -10z m-30 -4 c0 -2 -8 -10 -17 -17 -16 -13 -17 -12 -4 4 13 16
21 21 21 13z m55 -596 c3 -5 1 -10 -4 -10 -6 0 -11 5 -11 10 0 6 2 10 4 10 3
0 8 -4 11 -10z m1262 -66 c-3 -3 -12 -4 -19 -1 -8 3 -5 6 6 6 11 1 17 -2 13
-5z m-2137 -30 c0 -20 -7 -17 -20 6 -9 16 -8 18 5 14 8 -4 15 -12 15 -20z
m2320 -73 c0 -9 -106 -8 -115 1 -3 3 10 6 30 6 20 0 39 2 41 5 7 7 44 -4 44
-12z m-175 -1 c3 -5 1 -10 -4 -10 -6 0 -11 5 -11 10 0 6 2 10 4 10 3 0 8 -4
11 -10z m45 0 c0 -5 -4 -10 -10 -10 -5 0 -10 5 -10 10 0 6 5 10 10 10 6 0 10
-4 10 -10z m-1380 -100 c0 -5 -4 -10 -10 -10 -5 0 -10 5 -10 10 0 6 5 10 10
10 6 0 10 -4 10 -10z m35 0 c-3 -5 -10 -10 -16 -10 -5 0 -9 5 -9 10 0 6 7 10
16 10 8 0 12 -4 9 -10z m-655 -20 c0 -5 -2 -10 -4 -10 -3 0 -8 5 -11 10 -3 6
-1 10 4 10 6 0 11 -4 11 -10z m1540 -192 c0 -16 -3 -19 -11 -11 -6 6 -8 16 -5
22 11 17 16 13 16 -11z m10 -48 c0 -5 -4 -10 -10 -10 -5 0 -10 5 -10 10 0 6 5
10 10 10 6 0 10 -4 10 -10z m-570 -15 c-7 -8 -19 -15 -27 -15 -13 0 -13 3 -3
15 7 8 19 15 27 15 13 0 13 -3 3 -15z m95 -25 c-16 -31 -38 -42 -30 -15 3 8 7
22 10 30 2 8 11 15 20 15 14 0 14 -3 0 -30z m-139 -15 c-36 -19 -47 -19 -22 0
11 8 27 15 35 15 9 0 3 -7 -13 -15z m59 -54 c-3 -5 0 -13 6 -16 6 -4 8 -18 3
-34 -3 -14 -7 -33 -8 -41 -3 -29 -21 -18 -23 13 -1 18 -5 44 -7 60 -5 22 -2
27 15 27 11 0 18 -4 14 -9z m570 0 c3 -5 1 -12 -5 -16 -5 -3 -10 1 -10 9 0 18
6 21 15 7z m5 -53 c0 -18 -2 -20 -9 -8 -6 8 -7 18 -5 22 9 14 14 9 14 -14z
m27 -143 c0 -8 -4 -15 -9 -15 -10 0 -11 14 -1 23 9 10 10 9 10 -8z"/>
<path d="M1524 1491 c20 -22 26 -25 26 -13 0 4 -10 13 -22 21 -23 14 -23 14
-4 -8z"/>
<path d="M8800 1502 c0 -10 41 -24 49 -17 6 7 0 11 -26 19 -13 4 -23 3 -23 -2z"/>
<path d="M1645 1471 c-3 -5 -2 -12 3 -15 5 -3 9 1 9 9 0 17 -3 19 -12 6z"/>
<path d="M1701 1454 c-1 -6 5 -17 12 -23 10 -8 14 -7 14 4 0 8 -4 12 -8 9 -4
-2 -10 2 -12 8 -4 8 -6 9 -6 2z"/>
<path d="M8890 1455 c0 -2 9 -9 20 -15 24 -13 50 -2 29 11 -15 9 -49 12 -49 4z"/>
<path d="M1381 1413 c-7 -8 -11 -16 -8 -19 2 -2 10 2 17 11 17 20 9 27 -9 8z"/>
<path d="M1778 1408 c5 -5 16 -8 23 -6 8 3 3 7 -10 11 -17 4 -21 3 -13 -5z"/>
<path d="M1415 1390 c-3 -6 1 -7 9 -4 18 7 21 14 7 14 -6 0 -13 -4 -16 -10z"/>
<path d="M9024 1385 c22 -17 36 -19 36 -6 0 10 -24 21 -43 21 -7 0 -3 -7 7
-15z"/>
<path d="M1335 1313 c-33 -31 -51 -51 -40 -45 19 10 114 102 105 102 -3 0 -32
-26 -65 -57z"/>
<path d="M1276 1315 c-11 -8 -16 -15 -10 -15 5 0 18 7 28 15 11 8 16 15 10 15
-5 0 -18 -7 -28 -15z"/>
<path d="M7876 1278 c-9 -13 -13 -31 -9 -46 4 -16 2 -23 -4 -19 -6 4 -14 0
-17 -9 -10 -26 -7 -34 12 -34 10 0 23 -5 28 -10 16 -16 71 16 78 45 6 23 25
33 39 19 3 -3 2 -17 -3 -29 -8 -20 -5 -25 13 -31 12 -4 45 -7 73 -5 32 1 55
-3 61 -11 19 -24 34 -84 35 -144 1 -73 5 -80 29 -58 22 20 25 67 5 83 -8 7
-14 20 -14 29 2 38 -24 188 -34 200 -6 7 -20 18 -30 23 -28 15 -120 20 -135 7
-8 -7 -17 -7 -25 -1 -7 5 -30 10 -50 12 -28 1 -40 -4 -52 -21z m16 -10 c-7 -7
-12 -8 -12 -2 0 14 12 26 19 19 2 -3 -1 -11 -7 -17z"/>
<path d="M1245 1279 c-9 -14 -2 -20 14 -10 8 6 9 11 3 15 -6 3 -14 1 -17 -5z"/>
<path d="M1216 1253 c-6 -14 -5 -15 5 -6 7 7 10 15 7 18 -3 3 -9 -2 -12 -12z"/>
<path d="M9486 1237 c3 -10 9 -15 12 -12 3 3 0 11 -7 18 -10 9 -11 8 -5 -6z"/>
<path d="M1222 1210 c-42 -39 -30 -39 15 0 18 17 30 30 26 30 -4 0 -23 -14
-41 -30z"/>
<path d="M1172 1214 c-7 -8 -8 -14 -3 -14 10 0 25 19 20 25 -2 1 -10 -3 -17
-11z"/>
<path d="M5673 1203 c9 -2 23 -2 30 0 6 3 -1 5 -18 5 -16 0 -22 -2 -12 -5z"/>
<path d="M9500 1205 c0 -5 5 -17 10 -25 5 -8 10 -10 10 -5 0 6 -5 17 -10 25
-5 8 -10 11 -10 5z"/>
<path d="M5881 1176 c2 -2 20 -6 39 -10 25 -4 31 -3 20 4 -14 9 -69 15 -59 6z"/>
<path d="M1105 1160 c-3 -6 1 -7 9 -4 18 7 21 14 7 14 -6 0 -13 -4 -16 -10z"/>
<path d="M5960 1166 c0 -2 14 -6 30 -8 17 -3 30 -1 30 4 0 4 -13 8 -30 8 -16
0 -30 -2 -30 -4z"/>
<path d="M7727 1028 c-37 -73 -83 -173 -103 -222 -20 -50 -63 -145 -95 -212
-56 -114 -69 -154 -51 -154 10 0 133 260 172 365 18 50 37 95 41 101 5 6 10
19 12 30 1 10 5 24 9 29 41 67 98 175 98 186 0 30 -24 -6 -83 -123z"/>
<path d="M9520 1154 c0 -5 7 -19 15 -30 8 -10 15 -14 15 -8 0 5 -7 19 -15 30
-8 10 -15 14 -15 8z"/>
<path d="M1145 1140 c-3 -5 -2 -10 4 -10 5 0 13 5 16 10 3 6 2 10 -4 10 -5 0
-13 -4 -16 -10z"/>
<path d="M1095 1126 c18 -13 18 -14 -3 -25 -20 -11 -26 -8 -23 11 0 4 -6 5
-14 2 -20 -8 -19 -11 6 -24 27 -15 66 15 48 37 -6 7 -16 13 -22 13 -6 0 -2 -6
8 -14z"/>
<path d="M6178 1133 c7 -3 16 -2 19 1 4 3 -2 6 -13 5 -11 0 -14 -3 -6 -6z"/>
<path d="M6210 1129 c0 -5 11 -9 25 -9 14 0 25 2 25 4 0 2 -11 6 -25 8 -14 3
-25 1 -25 -3z"/>
<path d="M6325 1110 c28 -12 37 -12 30 0 -3 6 -16 10 -28 9 -21 0 -21 -1 -2
-9z"/>
<path d="M6376 1111 c-3 -5 3 -11 15 -14 16 -4 18 -3 8 9 -13 16 -16 17 -23 5z"/>
<path d="M9303 1094 c-3 -8 -1 -26 5 -40 22 -46 51 -20 33 29 -12 30 -29 35
-38 11z"/>
<path d="M6443 1093 c9 -2 23 -2 30 0 6 3 -1 5 -18 5 -16 0 -22 -2 -12 -5z"/>
<path d="M9570 1041 c4 -16 5 -33 2 -37 -4 -4 -2 -4 4 -1 12 7 7 54 -7 62 -4
3 -4 -8 1 -24z"/>
<path d="M6756 1002 c25 -21 48 -61 40 -69 -7 -7 -51 -10 -331 -17 -132 -4
-269 -9 -305 -11 -36 -2 -186 -7 -335 -10 -148 -3 -304 -7 -345 -10 -41 -2
-169 -7 -285 -10 -115 -3 -253 -7 -305 -10 -52 -3 -185 -7 -295 -10 -236 -6
-489 -16 -493 -20 -3 -3 436 -155 593 -206 66 -21 194 -54 285 -74 91 -20 212
-47 270 -60 58 -13 146 -33 195 -44 50 -11 151 -34 225 -52 74 -17 191 -44
260 -60 69 -15 175 -40 235 -54 148 -34 189 -56 128 -68 -16 -3 -32 -1 -37 4
-6 6 -4 9 7 9 9 0 17 5 17 11 0 5 -4 8 -9 5 -17 -11 -66 -29 -80 -30 -8 -1
-17 -8 -19 -16 -5 -13 -3 -13 13 0 10 8 19 14 19 12 1 -2 9 0 19 4 10 3 20 4
23 1 12 -11 -8 -27 -34 -27 -27 0 -60 -15 -52 -23 3 -3 50 10 105 29 55 18
112 34 126 34 25 0 253 76 316 105 17 8 35 15 40 15 16 0 192 78 298 132 55
28 123 70 152 94 61 52 113 127 113 163 0 35 -76 115 -128 137 -23 9 -42 20
-42 24 0 11 -79 42 -91 35 -5 -4 -9 -13 -9 -20 0 -9 -6 -12 -17 -8 -11 4 -12
8 -5 11 7 2 12 8 12 13 0 6 -4 8 -9 4 -5 -3 -12 -1 -16 5 -10 15 -55 12 -55
-4 0 -8 6 -17 13 -19 6 -3 2 -6 -10 -6 -13 -1 -24 5 -24 12 -1 6 -2 18 -3 26
-2 29 -25 22 -35 -11 -7 -24 -9 -27 -10 -11 -1 13 -10 24 -23 28 -13 4 -32 15
-43 25 -11 10 -33 23 -50 29 -30 11 -30 11 -9 -7z m164 -52 c0 -5 -5 -10 -11
-10 -5 0 -7 5 -4 10 3 6 8 10 11 10 2 0 4 -4 4 -10z m-115 -148 c-10 -83 -18
-53 -9 35 5 46 10 66 12 48 2 -16 1 -54 -3 -83z m140 89 c3 -5 1 -12 -4 -15
-5 -3 -11 1 -15 9 -6 16 9 21 19 6z m65 -7 c0 -8 -4 -12 -10 -9 -5 3 -10 10
-10 16 0 5 5 9 10 9 6 0 10 -7 10 -16z m-100 -19 c-9 -10 -9 -15 -1 -15 6 0
11 -5 11 -12 0 -8 -6 -7 -16 4 -16 16 -12 38 8 38 7 0 6 -6 -2 -15z m114 -11
c13 -5 16 -22 16 -83 l0 -77 -117 -38 c-65 -21 -124 -41 -130 -43 -9 -4 -13 6
-13 30 0 29 4 36 23 39 18 2 24 13 33 63 7 33 12 52 13 43 1 -25 37 -23 44 2
3 13 14 20 30 20 17 0 28 7 32 19 3 11 16 22 28 24 12 2 23 5 24 6 1 0 8 -2
17 -5z m-471 -549 c-3 -9 -8 -14 -10 -11 -3 3 -2 9 2 15 9 16 15 13 8 -4z
m-45 -12 c-10 -2 -18 -9 -18 -14 0 -5 -10 -9 -22 -9 -23 1 -23 1 2 15 14 8 32
14 40 13 10 0 10 -2 -2 -5z"/>
<path d="M9366 970 c7 -35 84 -190 94 -190 5 0 11 6 14 13 3 9 8 8 18 -5 9
-10 23 -14 41 -11 34 7 36 33 3 33 -14 0 -27 4 -30 9 -11 16 5 39 23 34 9 -2
23 3 30 11 11 13 11 19 0 33 -11 13 -11 17 -1 20 6 3 12 10 12 15 0 6 -3 8 -7
5 -3 -4 -11 -3 -17 3 -15 11 -86 -4 -97 -21 -4 -7 -5 -18 -2 -25 2 -7 0 -20
-5 -29 -7 -14 -16 -2 -45 56 -20 41 -34 63 -31 49z m174 -64 c0 -8 5 -16 12
-18 6 -2 8 -10 4 -16 -4 -7 -16 -10 -26 -7 -10 3 -21 1 -25 -5 -4 -7 -14 -1
-26 14 -25 32 -24 34 14 39 17 2 35 5 40 5 4 1 7 -4 7 -12z"/>
<path d="M9515 890 c-4 -6 -11 -7 -17 -4 -7 4 -8 2 -4 -5 6 -9 11 -9 22 0 14
11 18 19 10 19 -3 0 -8 -5 -11 -10z"/>
<path d="M9586 872 c-2 -4 -1 -14 4 -22 7 -11 9 -9 7 8 -1 24 -3 26 -11 14z"/>
<path d="M1885 810 l-130 -5 138 -5 c77 -3 141 -2 143 1 7 12 -21 14 -151 9z"/>
<path d="M1633 803 c4 -3 21 -6 39 -5 18 0 39 -5 47 -11 12 -9 13 -9 7 1 -4 6
-3 12 3 12 5 0 13 -4 16 -10 3 -5 14 -9 23 -9 15 1 15 2 0 6 -10 2 -18 9 -18
14 0 5 -28 9 -62 9 -34 0 -58 -3 -55 -7z"/>
<path d="M1466 791 c-2 -3 29 -6 69 -6 40 0 71 4 68 8 -5 9 -132 7 -137 -2z"/>
<path d="M3234 785 c-8 -19 2 -45 16 -45 5 0 10 14 10 30 0 31 -16 41 -26 15z"/>
<path d="M1343 783 c15 -2 39 -2 55 0 15 2 2 4 -28 4 -30 0 -43 -2 -27 -4z"/>
<path d="M1968 783 c7 -3 16 -2 19 1 4 3 -2 6 -13 5 -11 0 -14 -3 -6 -6z"/>
<path d="M515 592 c-34 -4 -60 -23 -29 -21 36 2 79 14 69 20 -5 2 -23 3 -40 1z"/>
<path d="M446 538 c-3 -13 -8 -67 -11 -121 -6 -81 -10 -97 -22 -93 -8 3 -16 6
-18 6 -11 0 -53 74 -49 84 5 13 -55 35 -91 34 -11 -1 -28 2 -37 7 -32 13 -19
-12 25 -47 23 -18 71 -51 107 -73 36 -21 89 -57 119 -79 110 -84 111 -84 139
-77 26 7 27 10 34 102 4 52 6 105 5 119 -4 26 -41 53 -89 65 l-28 7 -1 -63
c-1 -35 -5 -77 -9 -94 -7 -27 -8 -26 -9 16 -1 38 -5 48 -27 60 -25 13 -26 16
-22 87 5 69 -6 109 -16 60z"/>
<path d="M68 503 c-32 -5 -38 -23 -9 -23 26 0 51 10 51 21 0 5 -3 8 -7 8 -5
-1 -20 -4 -35 -6z"/>
<path d="M1006 452 c-4 -4 -78 -12 -164 -19 l-157 -11 153 5 153 5 -5 -99 c-2
-54 -5 -104 -5 -111 -1 -7 -6 -10 -13 -6 -7 4 -8 3 -4 -5 4 -6 12 -8 18 -5 6
4 13 2 17 -3 3 -6 37 -13 74 -16 l69 -5 86 66 87 67 -70 3 -70 3 0 67 0 67
-35 0 c-26 0 -34 -4 -32 -15 3 -12 1 -13 -9 -2 -22 21 -32 13 -26 -23 3 -19 2
-35 -3 -35 -5 0 -7 -13 -4 -29 6 -27 4 -28 -21 -23 -27 5 -27 6 -22 63 5 56
-1 77 -17 61z m140 -86 c-6 -38 -10 -42 -36 -44 -17 -1 -30 2 -30 7 0 16 18
22 23 9 8 -20 27 11 27 44 0 14 3 35 7 45 7 17 8 17 11 -1 2 -10 1 -37 -2 -60z
m-49 7 c-3 -10 -5 -2 -5 17 0 19 2 27 5 18 2 -10 2 -26 0 -35z"/>
<path d="M3070 430 c0 -32 14 -40 24 -14 10 27 7 44 -9 44 -10 0 -15 -10 -15
-30z"/>
<path d="M1215 440 c-6 -9 1 -14 18 -11 12 2 8 -17 -5 -21 -6 -2 -8 -10 -4
-16 14 -23 26 -12 26 23 0 34 -20 49 -35 25z"/>
<path d="M1330 405 c0 -33 2 -36 15 -25 18 15 16 51 -2 58 -9 2 -13 -8 -13
-33z"/>
<path d="M8129 405 c-4 -14 -6 -21 -13 -37 -10 -23 -1 -48 18 -48 17 0 28 37
19 68 -5 19 -21 31 -24 17z"/>
<path d="M7721 268 c2 -139 11 -221 27 -226 9 -3 11 13 6 70 -3 40 -8 82 -9
93 -2 11 -4 53 -4 93 -1 41 -5 72 -11 72 -6 0 -10 -40 -9 -102z"/>
<path d="M808 323 c7 -3 16 -2 19 1 4 3 -2 6 -13 5 -11 0 -14 -3 -6 -6z"/>
<path d="M8095 233 c-4 -15 -8 -36 -10 -45 -4 -24 12 -33 31 -17 18 15 15 80
-3 86 -7 3 -15 -8 -18 -24z"/>
<path d="M6460 225 c-36 -13 -184 -63 -329 -110 -145 -48 -278 -93 -295 -101
l-31 -13 48 -1 c36 0 104 21 285 89 338 127 402 152 402 157 0 7 -12 4 -80
-21z"/>
<path d="M718 213 c7 -3 16 -2 19 1 4 3 -2 6 -13 5 -11 0 -14 -3 -6 -6z"/>
<path d="M1670 199 c0 -5 5 -7 10 -4 6 3 10 8 10 11 0 2 -4 4 -10 4 -5 0 -10
-5 -10 -11z"/>
<path d="M6098 183 c7 -3 16 -2 19 1 4 3 -2 6 -13 5 -11 0 -14 -3 -6 -6z"/>
<path d="M6015 161 c-60 -18 -129 -50 -123 -57 8 -7 93 20 101 32 4 7 23 16
42 20 20 3 38 10 41 15 3 5 4 9 2 8 -2 0 -30 -8 -63 -18z"/>
<path d="M6090 161 c0 -5 -14 -12 -30 -16 -17 -4 -28 -11 -25 -15 3 -5 26 -1
50 8 29 10 40 19 32 24 -16 10 -27 10 -27 -1z"/>
</g>
</svg>
